<mxfile host="app.diagrams.net" modified="2024-03-18T08:32:39.973Z" agent="Mozilla/5.0 (Windows NT 10.0; Win64; x64) AppleWebKit/537.36 (KHTML, like Gecko) Chrome/122.0.0.0 Safari/537.36" etag="6rrB_H1OlWWnFx78iOPq" version="24.0.7" type="device">
  <diagram name="Page-1" id="2YBvvXClWsGukQMizWep">
    <mxGraphModel dx="1050" dy="522" grid="1" gridSize="10" guides="1" tooltips="1" connect="1" arrows="1" fold="1" page="1" pageScale="1" pageWidth="850" pageHeight="1100" math="0" shadow="0">
      <root>
        <mxCell id="0" />
        <mxCell id="1" parent="0" />
        <mxCell id="aM9ryv3xv72pqoxQDRHE-1" value="&lt;u&gt;:User&lt;/u&gt;" style="shape=umlLifeline;perimeter=lifelinePerimeter;whiteSpace=wrap;html=1;container=0;dropTarget=0;collapsible=0;recursiveResize=0;outlineConnect=0;portConstraint=eastwest;newEdgeStyle={&quot;edgeStyle&quot;:&quot;elbowEdgeStyle&quot;,&quot;elbow&quot;:&quot;vertical&quot;,&quot;curved&quot;:0,&quot;rounded&quot;:0};" parent="1" vertex="1">
          <mxGeometry x="10" y="38" width="100" height="442" as="geometry" />
        </mxCell>
        <mxCell id="S_9EtfRvk314yFbeqAL3-68" value="" style="shape=umlDestroy;whiteSpace=wrap;html=1;strokeWidth=3;targetShapes=umlLifeline;" parent="aM9ryv3xv72pqoxQDRHE-1" vertex="1">
          <mxGeometry x="35" y="412" width="30" height="30" as="geometry" />
        </mxCell>
        <mxCell id="aM9ryv3xv72pqoxQDRHE-5" value="&lt;u&gt;:SurveillanceCamera&lt;/u&gt;" style="shape=umlLifeline;perimeter=lifelinePerimeter;whiteSpace=wrap;html=1;container=0;dropTarget=0;collapsible=0;recursiveResize=0;outlineConnect=0;portConstraint=eastwest;newEdgeStyle={&quot;edgeStyle&quot;:&quot;elbowEdgeStyle&quot;,&quot;elbow&quot;:&quot;vertical&quot;,&quot;curved&quot;:0,&quot;rounded&quot;:0};" parent="1" vertex="1">
          <mxGeometry x="145" y="40" width="130" height="440" as="geometry" />
        </mxCell>
        <mxCell id="S_9EtfRvk314yFbeqAL3-69" value="" style="shape=umlDestroy;whiteSpace=wrap;html=1;strokeWidth=3;targetShapes=umlLifeline;" parent="aM9ryv3xv72pqoxQDRHE-5" vertex="1">
          <mxGeometry x="50" y="410" width="30" height="30" as="geometry" />
        </mxCell>
        <mxCell id="S_9EtfRvk314yFbeqAL3-3" value="&lt;u&gt;:BehaviorModel&lt;/u&gt;" style="shape=umlLifeline;perimeter=lifelinePerimeter;whiteSpace=wrap;html=1;container=0;dropTarget=0;collapsible=0;recursiveResize=0;outlineConnect=0;portConstraint=eastwest;newEdgeStyle={&quot;edgeStyle&quot;:&quot;elbowEdgeStyle&quot;,&quot;elbow&quot;:&quot;vertical&quot;,&quot;curved&quot;:0,&quot;rounded&quot;:0};" parent="1" vertex="1">
          <mxGeometry x="310" y="40" width="130" height="440" as="geometry" />
        </mxCell>
        <mxCell id="S_9EtfRvk314yFbeqAL3-70" value="" style="shape=umlDestroy;whiteSpace=wrap;html=1;strokeWidth=3;targetShapes=umlLifeline;" parent="S_9EtfRvk314yFbeqAL3-3" vertex="1">
          <mxGeometry x="50" y="410" width="30" height="30" as="geometry" />
        </mxCell>
        <mxCell id="S_9EtfRvk314yFbeqAL3-4" value="&lt;u&gt;:Prediction&lt;/u&gt;" style="shape=umlLifeline;perimeter=lifelinePerimeter;whiteSpace=wrap;html=1;container=0;dropTarget=0;collapsible=0;recursiveResize=0;outlineConnect=0;portConstraint=eastwest;newEdgeStyle={&quot;edgeStyle&quot;:&quot;elbowEdgeStyle&quot;,&quot;elbow&quot;:&quot;vertical&quot;,&quot;curved&quot;:0,&quot;rounded&quot;:0};" parent="1" vertex="1">
          <mxGeometry x="480" y="40" width="130" height="440" as="geometry" />
        </mxCell>
        <mxCell id="S_9EtfRvk314yFbeqAL3-71" value="" style="shape=umlDestroy;whiteSpace=wrap;html=1;strokeWidth=3;targetShapes=umlLifeline;" parent="S_9EtfRvk314yFbeqAL3-4" vertex="1">
          <mxGeometry x="50" y="410" width="30" height="30" as="geometry" />
        </mxCell>
        <mxCell id="S_9EtfRvk314yFbeqAL3-6" value="&lt;u&gt;:AlertInterface&lt;/u&gt;" style="shape=umlLifeline;perimeter=lifelinePerimeter;whiteSpace=wrap;html=1;container=0;dropTarget=0;collapsible=0;recursiveResize=0;outlineConnect=0;portConstraint=eastwest;newEdgeStyle={&quot;edgeStyle&quot;:&quot;elbowEdgeStyle&quot;,&quot;elbow&quot;:&quot;vertical&quot;,&quot;curved&quot;:0,&quot;rounded&quot;:0};" parent="1" vertex="1">
          <mxGeometry x="810" y="40" width="130" height="440" as="geometry" />
        </mxCell>
        <mxCell id="S_9EtfRvk314yFbeqAL3-73" value="" style="shape=umlDestroy;whiteSpace=wrap;html=1;strokeWidth=3;targetShapes=umlLifeline;" parent="S_9EtfRvk314yFbeqAL3-6" vertex="1">
          <mxGeometry x="50" y="410" width="30" height="30" as="geometry" />
        </mxCell>
        <mxCell id="S_9EtfRvk314yFbeqAL3-7" value="&lt;u&gt;:AlertSystem&lt;/u&gt;&lt;span style=&quot;color: rgba(0, 0, 0, 0); font-family: monospace; font-size: 0px; text-align: start; text-wrap: nowrap;&quot;&gt;%3CmxGraphModel%3E%3Croot%3E%3CmxCell%20id%3D%220%22%2F%3E%3CmxCell%20id%3D%221%22%20parent%3D%220%22%2F%3E%3CmxCell%20id%3D%222%22%20value%3D%22%26lt%3Bu%26gt%3B%3AAlertInterface%26lt%3B%2Fu%26gt%3B%22%20style%3D%22shape%3DumlLifeline%3Bperimeter%3DlifelinePerimeter%3BwhiteSpace%3Dwrap%3Bhtml%3D1%3Bcontainer%3D0%3BdropTarget%3D0%3Bcollapsible%3D0%3BrecursiveResize%3D0%3BoutlineConnect%3D0%3BportConstraint%3Deastwest%3BnewEdgeStyle%3D%7B%26quot%3BedgeStyle%26quot%3B%3A%26quot%3BelbowEdgeStyle%26quot%3B%2C%26quot%3Belbow%26quot%3B%3A%26quot%3Bvertical%26quot%3B%2C%26quot%3Bcurved%26quot%3B%3A0%2C%26quot%3Brounded%26quot%3B%3A0%7D%3B%22%20vertex%3D%221%22%20parent%3D%221%22%3E%3CmxGeometry%20x%3D%22790%22%20y%3D%2240%22%20width%3D%22130%22%20height%3D%22300%22%20as%3D%22geometry%22%2F%3E%3C%2FmxCell%3E%3C%2Froot%3E%3C%2FmxGraphModel%3E&lt;/span&gt;" style="shape=umlLifeline;perimeter=lifelinePerimeter;whiteSpace=wrap;html=1;container=0;dropTarget=0;collapsible=0;recursiveResize=0;outlineConnect=0;portConstraint=eastwest;newEdgeStyle={&quot;edgeStyle&quot;:&quot;elbowEdgeStyle&quot;,&quot;elbow&quot;:&quot;vertical&quot;,&quot;curved&quot;:0,&quot;rounded&quot;:0};" parent="1" vertex="1">
          <mxGeometry x="645" y="40" width="130" height="440" as="geometry" />
        </mxCell>
        <mxCell id="S_9EtfRvk314yFbeqAL3-72" value="" style="shape=umlDestroy;whiteSpace=wrap;html=1;strokeWidth=3;targetShapes=umlLifeline;" parent="S_9EtfRvk314yFbeqAL3-7" vertex="1">
          <mxGeometry x="50" y="410" width="30" height="30" as="geometry" />
        </mxCell>
        <mxCell id="S_9EtfRvk314yFbeqAL3-8" value="&lt;u&gt;:Report&lt;/u&gt;&lt;span style=&quot;color: rgba(0, 0, 0, 0); font-family: monospace; font-size: 0px; text-align: start; text-wrap: nowrap;&quot;&gt;%3CmxGraphModel%3E%3Croot%3E%3CmxCell%20id%3D%220%22%2F%3E%3CmxCell%20id%3D%221%22%20parent%3D%220%22%2F%3E%3CmxCell%20id%3D%222%22%20value%3D%22%26lt%3Bu%26gt%3B%3AAlertInterface%26lt%3B%2Fu%26gt%3B%22%20style%3D%22shape%3DumlLifeline%3Bperimeter%3DlifelinePerimeter%3BwhiteSpace%3Dwrap%3Bhtml%3D1%3Bcontainer%3D0%3BdropTarget%3D0%3Bcollapsible%3D0%3BrecursiveResize%3D0%3BoutlineConnect%3D0%3BportConstraint%3Deastwest%3BnewEdgeStyle%3D%7B%26quot%3BedgeStyle%26quot%3B%3A%26quot%3BelbowEdgeStyle%26quot%3B%2C%26quot%3Belbow%26quot%3B%3A%26quot%3Bvertical%26quot%3B%2C%26quot%3Bcurved%26quot%3B%3A0%2C%26quot%3Brounded%26quot%3B%3A0%7D%3B%22%20vertex%3D%221%22%20parent%3D%221%22%3E%3CmxGeometry%20x%3D%22790%22%20y%3D%2240%22%20width%3D%22130%22%20height%3D%22300%22%20as%3D%22geometry%22%2F%3E%3C%2FmxCell%3E%3C%2Froot%3E%3C%2FmxGraphModel%3E&lt;/span&gt;" style="shape=umlLifeline;perimeter=lifelinePerimeter;whiteSpace=wrap;html=1;container=0;dropTarget=0;collapsible=0;recursiveResize=0;outlineConnect=0;portConstraint=eastwest;newEdgeStyle={&quot;edgeStyle&quot;:&quot;elbowEdgeStyle&quot;,&quot;elbow&quot;:&quot;vertical&quot;,&quot;curved&quot;:0,&quot;rounded&quot;:0};" parent="1" vertex="1">
          <mxGeometry x="970" y="38" width="130" height="442" as="geometry" />
        </mxCell>
        <mxCell id="S_9EtfRvk314yFbeqAL3-74" value="" style="shape=umlDestroy;whiteSpace=wrap;html=1;strokeWidth=3;targetShapes=umlLifeline;" parent="S_9EtfRvk314yFbeqAL3-8" vertex="1">
          <mxGeometry x="50" y="412" width="30" height="30" as="geometry" />
        </mxCell>
        <mxCell id="S_9EtfRvk314yFbeqAL3-25" style="edgeStyle=orthogonalEdgeStyle;rounded=0;orthogonalLoop=1;jettySize=auto;html=1;" parent="1" source="aM9ryv3xv72pqoxQDRHE-1" target="aM9ryv3xv72pqoxQDRHE-1" edge="1">
          <mxGeometry relative="1" as="geometry">
            <mxPoint x="120" y="170" as="targetPoint" />
            <Array as="points">
              <mxPoint x="120" y="110" />
              <mxPoint x="120" y="130" />
            </Array>
          </mxGeometry>
        </mxCell>
        <mxCell id="S_9EtfRvk314yFbeqAL3-10" value="" style="verticalLabelPosition=bottom;verticalAlign=top;html=1;shape=mxgraph.basic.patternFillRect;fillStyle=diagRev;step=5;fillStrokeWidth=0.2;fillStrokeColor=#dddddd;" parent="1" vertex="1">
          <mxGeometry x="55" y="132" width="10" height="248" as="geometry" />
        </mxCell>
        <mxCell id="S_9EtfRvk314yFbeqAL3-21" value="Login()" style="text;html=1;align=center;verticalAlign=middle;whiteSpace=wrap;rounded=0;" parent="1" vertex="1">
          <mxGeometry x="61" y="80" width="60" height="30" as="geometry" />
        </mxCell>
        <mxCell id="S_9EtfRvk314yFbeqAL3-30" value="" style="endArrow=classic;html=1;rounded=0;" parent="1" edge="1">
          <mxGeometry width="50" height="50" relative="1" as="geometry">
            <mxPoint x="216" y="153" as="sourcePoint" />
            <mxPoint x="370" y="153" as="targetPoint" />
          </mxGeometry>
        </mxCell>
        <mxCell id="S_9EtfRvk314yFbeqAL3-31" value="continousStreamFeed()" style="text;html=1;align=center;verticalAlign=middle;whiteSpace=wrap;rounded=0;" parent="1" vertex="1">
          <mxGeometry x="260" y="124" width="60" height="30" as="geometry" />
        </mxCell>
        <mxCell id="S_9EtfRvk314yFbeqAL3-34" value="" style="endArrow=classic;html=1;rounded=0;entryX=0.12;entryY=0.052;entryDx=0;entryDy=0;entryPerimeter=0;" parent="1" edge="1">
          <mxGeometry width="50" height="50" relative="1" as="geometry">
            <mxPoint x="380" y="169" as="sourcePoint" />
            <mxPoint x="541.2" y="169.39999999999998" as="targetPoint" />
          </mxGeometry>
        </mxCell>
        <mxCell id="S_9EtfRvk314yFbeqAL3-35" value="analyzeBehavior()" style="text;html=1;align=center;verticalAlign=middle;whiteSpace=wrap;rounded=0;" parent="1" vertex="1">
          <mxGeometry x="430" y="145" width="60" height="30" as="geometry" />
        </mxCell>
        <mxCell id="S_9EtfRvk314yFbeqAL3-37" value="" style="endArrow=classic;html=1;rounded=0;entryX=0.12;entryY=0.052;entryDx=0;entryDy=0;entryPerimeter=0;" parent="1" edge="1">
          <mxGeometry width="50" height="50" relative="1" as="geometry">
            <mxPoint x="550" y="201" as="sourcePoint" />
            <mxPoint x="705.2" y="201.39999999999998" as="targetPoint" />
          </mxGeometry>
        </mxCell>
        <mxCell id="S_9EtfRvk314yFbeqAL3-44" value="" style="endArrow=classic;html=1;rounded=0;entryX=0;entryY=0.75;entryDx=0;entryDy=0;entryPerimeter=0;exitX=1.255;exitY=0.79;exitDx=0;exitDy=0;exitPerimeter=0;" parent="1" edge="1">
          <mxGeometry width="50" height="50" relative="1" as="geometry">
            <mxPoint x="66.54999999999995" y="290" as="sourcePoint" />
            <mxPoint x="869" y="291.5" as="targetPoint" />
          </mxGeometry>
        </mxCell>
        <mxCell id="S_9EtfRvk314yFbeqAL3-39" value="behaviordetected(behavior)" style="text;html=1;align=center;verticalAlign=middle;whiteSpace=wrap;rounded=0;" parent="1" vertex="1">
          <mxGeometry x="600" y="172" width="60" height="28" as="geometry" />
        </mxCell>
        <mxCell id="S_9EtfRvk314yFbeqAL3-45" value="" style="endArrow=classic;html=1;rounded=0;entryX=0.12;entryY=0.052;entryDx=0;entryDy=0;entryPerimeter=0;" parent="1" edge="1">
          <mxGeometry width="50" height="50" relative="1" as="geometry">
            <mxPoint x="715" y="209" as="sourcePoint" />
            <mxPoint x="870.2" y="209.39999999999998" as="targetPoint" />
          </mxGeometry>
        </mxCell>
        <mxCell id="S_9EtfRvk314yFbeqAL3-47" value="generateAlert(location, behavior, studentinfo, time)" style="text;html=1;align=center;verticalAlign=middle;whiteSpace=wrap;rounded=0;" parent="1" vertex="1">
          <mxGeometry x="718" y="176" width="150" height="30" as="geometry" />
        </mxCell>
        <mxCell id="S_9EtfRvk314yFbeqAL3-50" value="" style="endArrow=open;html=1;rounded=0;entryX=1.18;entryY=0.594;entryDx=0;entryDy=0;entryPerimeter=0;dashed=1;endFill=0;" parent="1" edge="1">
          <mxGeometry width="50" height="50" relative="1" as="geometry">
            <mxPoint x="869" y="252" as="sourcePoint" />
            <mxPoint x="65.79999999999995" y="250.80000000000007" as="targetPoint" />
          </mxGeometry>
        </mxCell>
        <mxCell id="S_9EtfRvk314yFbeqAL3-51" value="sendAlert()" style="text;html=1;align=center;verticalAlign=middle;whiteSpace=wrap;rounded=0;" parent="1" vertex="1">
          <mxGeometry x="765" y="226" width="60" height="30" as="geometry" />
        </mxCell>
        <mxCell id="S_9EtfRvk314yFbeqAL3-53" value="acknowledgeAlert()" style="text;html=1;align=center;verticalAlign=middle;whiteSpace=wrap;rounded=0;" parent="1" vertex="1">
          <mxGeometry x="110" y="264" width="60" height="30" as="geometry" />
        </mxCell>
        <mxCell id="S_9EtfRvk314yFbeqAL3-56" value="" style="endArrow=classic;html=1;rounded=0;" parent="1" edge="1">
          <mxGeometry width="50" height="50" relative="1" as="geometry">
            <mxPoint x="715" y="314" as="sourcePoint" />
            <mxPoint x="1030" y="314" as="targetPoint" />
          </mxGeometry>
        </mxCell>
        <mxCell id="S_9EtfRvk314yFbeqAL3-59" style="edgeStyle=orthogonalEdgeStyle;rounded=0;orthogonalLoop=1;jettySize=auto;html=1;exitX=0.25;exitY=1;exitDx=0;exitDy=0;exitPerimeter=0;dashed=1;endArrow=open;endFill=0;" parent="1" edge="1">
          <mxGeometry relative="1" as="geometry">
            <mxPoint x="66" y="350" as="targetPoint" />
            <mxPoint x="1031.4999999999998" y="350" as="sourcePoint" />
            <Array as="points">
              <mxPoint x="309" y="350" />
              <mxPoint x="309" y="350" />
            </Array>
          </mxGeometry>
        </mxCell>
        <mxCell id="S_9EtfRvk314yFbeqAL3-57" value="" style="verticalLabelPosition=bottom;verticalAlign=top;html=1;shape=mxgraph.basic.patternFillRect;fillStyle=diagRev;step=5;fillStrokeWidth=0.2;fillStrokeColor=#dddddd;" parent="1" vertex="1">
          <mxGeometry x="1030" y="310" width="10" height="140" as="geometry" />
        </mxCell>
        <mxCell id="S_9EtfRvk314yFbeqAL3-60" value="displayReport()" style="text;html=1;align=center;verticalAlign=middle;whiteSpace=wrap;rounded=0;" parent="1" vertex="1">
          <mxGeometry x="920" y="323" width="60" height="30" as="geometry" />
        </mxCell>
        <mxCell id="S_9EtfRvk314yFbeqAL3-62" value="alt" style="shape=umlFrame;whiteSpace=wrap;html=1;pointerEvents=0;" parent="1" vertex="1">
          <mxGeometry x="41" y="175" width="1079" height="265" as="geometry" />
        </mxCell>
        <mxCell id="S_9EtfRvk314yFbeqAL3-63" value="" style="endArrow=none;dashed=1;html=1;dashPattern=1 3;strokeWidth=2;rounded=0;entryX=1;entryY=0.758;entryDx=0;entryDy=0;entryPerimeter=0;" parent="1" target="S_9EtfRvk314yFbeqAL3-62" edge="1">
          <mxGeometry width="50" height="50" relative="1" as="geometry">
            <mxPoint x="41" y="374.5639589169001" as="sourcePoint" />
            <mxPoint x="1261.219" y="393.42999999999995" as="targetPoint" />
            <Array as="points" />
          </mxGeometry>
        </mxCell>
        <mxCell id="S_9EtfRvk314yFbeqAL3-64" value="&lt;b&gt;[no behavior detected]&lt;/b&gt;" style="text;html=1;align=center;verticalAlign=middle;whiteSpace=wrap;rounded=0;" parent="1" vertex="1">
          <mxGeometry x="34" y="374" width="150" height="30" as="geometry" />
        </mxCell>
        <mxCell id="S_9EtfRvk314yFbeqAL3-33" value="" style="verticalLabelPosition=bottom;verticalAlign=top;html=1;shape=mxgraph.basic.patternFillRect;fillStyle=diagRev;step=5;fillStrokeWidth=0.2;fillStrokeColor=#dddddd;" parent="1" vertex="1">
          <mxGeometry x="540" y="170" width="10" height="250" as="geometry" />
        </mxCell>
        <mxCell id="S_9EtfRvk314yFbeqAL3-65" style="edgeStyle=orthogonalEdgeStyle;rounded=0;orthogonalLoop=1;jettySize=auto;html=1;dashed=1;endArrow=open;endFill=0;" parent="1" edge="1">
          <mxGeometry relative="1" as="geometry">
            <mxPoint x="550" y="400" as="sourcePoint" />
            <mxPoint x="550" y="420" as="targetPoint" />
            <Array as="points">
              <mxPoint x="610" y="400" />
              <mxPoint x="610" y="420" />
            </Array>
          </mxGeometry>
        </mxCell>
        <mxCell id="S_9EtfRvk314yFbeqAL3-66" value="noBehaviorDetected()" style="text;html=1;align=center;verticalAlign=middle;whiteSpace=wrap;rounded=0;" parent="1" vertex="1">
          <mxGeometry x="585" y="374" width="60" height="30" as="geometry" />
        </mxCell>
        <mxCell id="YU0A0aX_DGX4RqRIW9Q8-1" value="createReport()" style="text;html=1;align=center;verticalAlign=middle;whiteSpace=wrap;rounded=0;" parent="1" vertex="1">
          <mxGeometry x="760" y="290.5" width="60" height="30" as="geometry" />
        </mxCell>
        <mxCell id="S_9EtfRvk314yFbeqAL3-46" value="" style="verticalLabelPosition=bottom;verticalAlign=top;html=1;shape=mxgraph.basic.patternFillRect;fillStyle=diagRev;step=5;fillStrokeWidth=0.2;fillStrokeColor=#dddddd;" parent="1" vertex="1">
          <mxGeometry x="870" y="207" width="10" height="240" as="geometry" />
        </mxCell>
        <mxCell id="S_9EtfRvk314yFbeqAL3-36" value="" style="verticalLabelPosition=bottom;verticalAlign=top;html=1;shape=mxgraph.basic.patternFillRect;fillStyle=diagRev;step=5;fillStrokeWidth=0.2;fillStrokeColor=#dddddd;" parent="1" vertex="1">
          <mxGeometry x="705" y="199" width="10" height="251" as="geometry" />
        </mxCell>
        <mxCell id="S_9EtfRvk314yFbeqAL3-28" value="" style="verticalLabelPosition=bottom;verticalAlign=top;html=1;shape=mxgraph.basic.patternFillRect;fillStyle=diagRev;step=5;fillStrokeWidth=0.2;fillStrokeColor=#dddddd;" parent="1" vertex="1">
          <mxGeometry x="370" y="151" width="10" height="299" as="geometry" />
        </mxCell>
        <mxCell id="S_9EtfRvk314yFbeqAL3-22" value="" style="verticalLabelPosition=bottom;verticalAlign=top;html=1;shape=mxgraph.basic.patternFillRect;fillStyle=diagRev;step=5;fillStrokeWidth=0.2;fillStrokeColor=#dddddd;" parent="1" vertex="1">
          <mxGeometry x="205" y="152" width="10" height="298" as="geometry" />
        </mxCell>
      </root>
    </mxGraphModel>
  </diagram>
</mxfile>
